# xmcd CD database file
#
# Track frame offsets:
#	150
#	15648
#	31526
#	43419
#	63698
#	74199
#	91072
#	110870
#	124456
#	145276
#	162275
#	177226
#	197118
#	211004
#	225833
#	237667
#	249914
#	266203
#	283244
#	302176
#
# Disc length: 4207 seconds
#
# Revision: 2
# Processed by: cddbd v1.5PL3 Copyright (c) Steve Scherf et al.
# Submitted via: CDex 1.51
#
DISCID=32106d14
DTITLE=Lisa Ono - Questa Bossa Mia...
DYEAR=2002
DGENRE=Jazz
TTITLE0=Cosa hia messo nel caffe
TTITLE1=Sul cocuzzolo
TTITLE2=Non dimenticar
TTITLE3=perl il sentiero
TTITLE4=Pive(ciao ciao bambina)
TTITLE5=O sole mio
TTITLE6=Nel blu dipnto di blu
TTITLE7=Reginella
TTITLE8=Roma nun fala stupida stasera
TTITLE9=Quest iven't an ni mie
TTITLE10=Fino a chiamarmi eva
TTITLE11=Ela chiamano estate
TTITLE12=Ninnananna ninna
TTITLE13=Tiguardero'nel core
TTITLE14=Red blouse
TTITLE15=Moonlight serenade
TTITLE16=Pretty world
TTITLE17=Smile
TTITLE18=Dream
TTITLE19=Winter wondertand
EXTD=YEAR: 2002
EXTT0=
EXTT1=
EXTT2=
EXTT3=
EXTT4=
EXTT5=
EXTT6=
EXTT7=
EXTT8=
EXTT9=
EXTT10=
EXTT11=
EXTT12=
EXTT13=
EXTT14=
EXTT15=
EXTT16=
EXTT17=
EXTT18=
EXTT19=
PLAYORDER=
